<svg width="1440" height="656" viewBox="0 0 1440 656" fill="none" xmlns="http://www.w3.org/2000/svg">
<path d="M32.7273 1H0V33.7273M32.7273 1V33.7273M32.7273 1H65.4545M32.7273 33.7273H0M32.7273 33.7273V66.4545M32.7273 33.7273H65.4545M0 33.7273V66.4545M32.7273 66.4545H0M32.7273 66.4545V99.1818M32.7273 66.4545H65.4545M0 66.4545V99.1818M32.7273 99.1818H0M32.7273 99.1818V131.909M32.7273 99.1818H65.4545M0 99.1818V131.909M32.7273 131.909H0M32.7273 131.909V164.636M32.7273 131.909H65.4545M0 131.909V164.636M32.7273 164.636H0M32.7273 164.636V197.364M32.7273 164.636H65.4545M0 164.636V197.364M32.7273 197.364H0M32.7273 197.364V230.091M32.7273 197.364H65.4545M0 197.364V230.091M32.7273 230.091H0M32.7273 230.091V262.818M32.7273 230.091H65.4545M0 230.091V262.818M32.7273 262.818H0M32.7273 262.818V295.545M32.7273 262.818H65.4545M0 262.818V295.545M32.7273 295.545H0M32.7273 295.545V328.273M32.7273 295.545H65.4545M0 295.545V328.273M32.7273 328.273H0M32.7273 328.273V361M32.7273 328.273H65.4545M0 328.273V361M32.7273 361H0M32.7273 361V393.727M32.7273 361H65.4545M0 361V393.727M32.7273 393.727H0M32.7273 393.727V426.455M32.7273 393.727H65.4545M0 393.727V426.455M32.7273 426.455H0M32.7273 426.455V459.182M32.7273 426.455H65.4545M0 426.455V459.182M32.7273 459.182H0M32.7273 459.182V491.909M32.7273 459.182H65.4545M0 459.182V491.909M32.7273 491.909H0M32.7273 491.909V524.636M32.7273 491.909H65.4545M0 491.909V524.636M32.7273 524.636H0M32.7273 524.636V557.364M32.7273 524.636H65.4545M0 524.636V557.364M32.7273 557.364H0M32.7273 557.364V590.091M32.7273 557.364H65.4545M0 557.364V590.091M32.7273 590.091H0M32.7273 590.091V622.818M32.7273 590.091H65.4545M0 590.091V622.818M32.7273 622.818H0M32.7273 622.818V655.545M32.7273 622.818H65.4545M0 622.818V655.545H32.7273M32.7273 655.545H65.4545M65.4545 1V33.7273M65.4545 1H98.1818M65.4545 33.7273V66.4545M65.4545 33.7273H98.1818M65.4545 66.4545V99.1818M65.4545 66.4545H98.1818M65.4545 99.1818V131.909M65.4545 99.1818H98.1818M65.4545 131.909V164.636M65.4545 131.909H98.1818M65.4545 164.636V197.364M65.4545 164.636H98.1818M65.4545 197.364V230.091M65.4545 197.364H98.1818M65.4545 230.091V262.818M65.4545 230.091H98.1818M65.4545 262.818V295.545M65.4545 262.818H98.1818M65.4545 295.545V328.273M65.4545 295.545H98.1818M65.4545 328.273V361M65.4545 328.273H98.1818M65.4545 361V393.727M65.4545 361H98.1818M65.4545 393.727V426.455M65.4545 393.727H98.1818M65.4545 426.455V459.182M65.4545 426.455H98.1818M65.4545 459.182V491.909M65.4545 459.182H98.1818M65.4545 491.909V524.636M65.4545 491.909H98.1818M65.4545 524.636V557.364M65.4545 524.636H98.1818M65.4545 557.364V590.091M65.4545 557.364H98.1818M65.4545 590.091V622.818M65.4545 590.091H98.1818M65.4545 622.818V655.545M65.4545 622.818H98.1818M65.4545 655.545H98.1818M98.1818 1V33.7273M98.1818 1H130.909M98.1818 33.7273V66.4545M98.1818 33.7273H130.909M98.1818 66.4545V99.1818M98.1818 66.4545H130.909M98.1818 99.1818V131.909M98.1818 99.1818H130.909M98.1818 131.909V164.636M98.1818 131.909H130.909M98.1818 164.636V197.364M98.1818 164.636H130.909M98.1818 197.364V230.091M98.1818 197.364H130.909M98.1818 230.091V262.818M98.1818 230.091H130.909M98.1818 262.818V295.545M98.1818 262.818H130.909M98.1818 295.545V328.273M98.1818 295.545H130.909M98.1818 328.273V361M98.1818 328.273H130.909M98.1818 361V393.727M98.1818 361H130.909M98.1818 393.727V426.455M98.1818 393.727H130.909M98.1818 426.455V459.182M98.1818 426.455H130.909M98.1818 459.182V491.909M98.1818 459.182H130.909M98.1818 491.909V524.636M98.1818 491.909H130.909M98.1818 524.636V557.364M98.1818 524.636H130.909M98.1818 557.364V590.091M98.1818 557.364H130.909M98.1818 590.091V622.818M98.1818 590.091H130.909M98.1818 622.818V655.545M98.1818 622.818H130.909M98.1818 655.545H130.909M130.909 1V33.7273M130.909 1H163.636M130.909 33.7273V66.4545M130.909 33.7273H163.636M130.909 66.4545V99.1818M130.909 66.4545H163.636M130.909 99.1818V131.909M130.909 99.1818H163.636M130.909 131.909V164.636M130.909 131.909H163.636M130.909 164.636V197.364M130.909 164.636H163.636M130.909 197.364V230.091M130.909 197.364H163.636M130.909 230.091V262.818M130.909 230.091H163.636M130.909 262.818V295.545M130.909 262.818H163.636M130.909 295.545V328.273M130.909 295.545H163.636M130.909 328.273V361M130.909 328.273H163.636M130.909 361V393.727M130.909 361H163.636M130.909 393.727V426.455M130.909 393.727H163.636M130.909 426.455V459.182M130.909 426.455H163.636M130.909 459.182V491.909M130.909 459.182H163.636M130.909 491.909V524.636M130.909 491.909H163.636M130.909 524.636V557.364M130.909 524.636H163.636M130.909 557.364V590.091M130.909 557.364H163.636M130.909 590.091V622.818M130.909 590.091H163.636M130.909 622.818V655.545M130.909 622.818H163.636M130.909 655.545H163.636M163.636 1V33.7273M163.636 1H196.364M163.636 33.7273V66.4545M163.636 33.7273H196.364M163.636 66.4545V99.1818M163.636 66.4545H196.364M163.636 99.1818V131.909M163.636 99.1818H196.364M163.636 131.909V164.636M163.636 131.909H196.364M163.636 164.636V197.364M163.636 164.636H196.364M163.636 197.364V230.091M163.636 197.364H196.364M163.636 230.091V262.818M163.636 230.091H196.364M163.636 262.818V295.545M163.636 262.818H196.364M163.636 295.545V328.273M163.636 295.545H196.364M163.636 328.273V361M163.636 328.273H196.364M163.636 361V393.727M163.636 361H196.364M163.636 393.727V426.455M163.636 393.727H196.364M163.636 426.455V459.182M163.636 426.455H196.364M163.636 459.182V491.909M163.636 459.182H196.364M163.636 491.909V524.636M163.636 491.909H196.364M163.636 524.636V557.364M163.636 524.636H196.364M163.636 557.364V590.091M163.636 557.364H196.364M163.636 590.091V622.818M163.636 590.091H196.364M163.636 622.818V655.545M163.636 622.818H196.364M163.636 655.545H196.364M196.364 1V33.7273M196.364 1H229.091M196.364 33.7273V66.4545M196.364 33.7273H229.091M196.364 66.4545V99.1818M196.364 66.4545H229.091M196.364 99.1818V131.909M196.364 99.1818H229.091M196.364 131.909V164.636M196.364 131.909H229.091M196.364 164.636V197.364M196.364 164.636H229.091M196.364 197.364V230.091M196.364 197.364H229.091M196.364 230.091V262.818M196.364 230.091H229.091M196.364 262.818V295.545M196.364 262.818H229.091M196.364 295.545V328.273M196.364 295.545H229.091M196.364 328.273V361M196.364 328.273H229.091M196.364 361V393.727M196.364 361H229.091M196.364 393.727V426.455M196.364 393.727H229.091M196.364 426.455V459.182M196.364 426.455H229.091M196.364 459.182V491.909M196.364 459.182H229.091M196.364 491.909V524.636M196.364 491.909H229.091M196.364 524.636V557.364M196.364 524.636H229.091M196.364 557.364V590.091M196.364 557.364H229.091M196.364 590.091V622.818M196.364 590.091H229.091M196.364 622.818V655.545M196.364 622.818H229.091M196.364 655.545H229.091M229.091 1V33.7273M229.091 1H261.818M229.091 33.7273V66.4545M229.091 33.7273H261.818M229.091 66.4545V99.1818M229.091 66.4545H261.818M229.091 99.1818V131.909M229.091 99.1818H261.818M229.091 131.909V164.636M229.091 131.909H261.818M229.091 164.636V197.364M229.091 164.636H261.818M229.091 197.364V230.091M229.091 197.364H261.818M229.091 230.091H261.818M229.091 230.091V262.818M229.091 262.818V295.545M229.091 262.818H261.818M229.091 295.545V328.273M229.091 295.545H261.818M229.091 328.273V361M229.091 328.273H261.818M229.091 361V393.727M229.091 361H261.818M229.091 393.727V426.455M229.091 393.727H261.818M229.091 426.455V459.182M229.091 426.455H261.818M229.091 459.182V491.909M229.091 459.182H261.818M229.091 491.909V524.636M229.091 491.909H261.818M229.091 524.636V557.364M229.091 524.636H261.818M229.091 557.364V590.091M229.091 557.364H261.818M229.091 590.091V622.818M229.091 590.091H261.818M229.091 622.818V655.545M229.091 622.818H261.818M229.091 655.545H261.818M261.818 1V33.7273M261.818 1H294.545M261.818 33.7273V66.4545M261.818 33.7273H294.545M261.818 66.4545V99.1818M261.818 66.4545H294.545M261.818 99.1818V131.909M261.818 99.1818H294.545M261.818 131.909V164.636M261.818 131.909H294.545M261.818 164.636V197.364M261.818 164.636H294.545M261.818 197.364V230.091M261.818 197.364H294.545M261.818 230.091V262.818M261.818 230.091H294.545M261.818 262.818V295.545M261.818 262.818H294.545M261.818 295.545V328.273M261.818 295.545H294.545M261.818 328.273V361M261.818 328.273H294.545M261.818 361V393.727M261.818 361H294.545M261.818 393.727V426.455M261.818 393.727H294.545M261.818 426.455V459.182M261.818 426.455C261.818 426.455 281.765 426.455 294.545 426.455M261.818 459.182V491.909M261.818 459.182H294.545M261.818 491.909V524.636M261.818 491.909H294.545M261.818 524.636V557.364M261.818 524.636H294.545M261.818 557.364V590.091M261.818 557.364H294.545M261.818 590.091V622.818M261.818 590.091H294.545M261.818 622.818V655.545M261.818 622.818H294.545M261.818 655.545H294.545M294.545 1V33.7273M294.545 1H327.273M294.545 33.7273V66.4545M294.545 33.7273H327.273M294.545 66.4545V99.1818M294.545 66.4545H327.273M294.545 99.1818V131.909M294.545 99.1818H327.273M294.545 131.909V164.636M294.545 131.909H327.273M294.545 164.636V197.364M294.545 164.636H327.273M294.545 197.364V230.091M294.545 197.364H327.273M294.545 230.091V262.818M294.545 230.091H327.273M294.545 262.818V295.545M294.545 262.818H327.273M294.545 295.545V328.273M294.545 295.545H327.273M294.545 328.273V361M294.545 328.273H327.273M294.545 361V393.727M294.545 361H327.273M294.545 393.727C294.545 393.727 294.545 413.674 294.545 426.455M294.545 393.727H327.273M294.545 426.455C294.545 439.235 294.545 459.182 294.545 459.182M294.545 426.455C307.326 426.455 327.273 426.455 327.273 426.455M294.545 459.182V491.909M294.545 459.182H327.273M294.545 491.909V524.636M294.545 491.909H327.273M294.545 524.636V557.364M294.545 524.636H327.273M294.545 557.364V590.091M294.545 557.364H327.273M294.545 590.091V622.818M294.545 590.091H327.273M294.545 622.818V655.545M294.545 622.818H327.273M294.545 655.545H327.273M327.273 1V33.7273M327.273 1H360M327.273 33.7273V66.4545M327.273 33.7273H360M327.273 66.4545V99.1818M327.273 66.4545H360M327.273 99.1818V131.909M327.273 99.1818H360M327.273 131.909V164.636M327.273 131.909H360M327.273 164.636V197.364M327.273 164.636H360M327.273 197.364V230.091M327.273 197.364H360M327.273 230.091V262.818M327.273 230.091H360M327.273 262.818V295.545M327.273 262.818H360M327.273 295.545V328.273M327.273 295.545H360M327.273 328.273V361M327.273 328.273H360M327.273 361V393.727M327.273 361H360M327.273 393.727V426.455M327.273 393.727H360M327.273 426.455V459.182M327.273 426.455H360M327.273 459.182V491.909M327.273 459.182H360M327.273 491.909V524.636M327.273 491.909H360M327.273 524.636V557.364M327.273 524.636H360M327.273 557.364V590.091M327.273 557.364H360M327.273 590.091V622.818M327.273 590.091H360M327.273 622.818V655.545M327.273 622.818H360M327.273 655.545H360M360 1V33.7273M360 1H392.727M360 33.7273V66.4545M360 33.7273H392.727M360 66.4545V99.1818M360 66.4545H392.727M360 99.1818V131.909M360 99.1818H392.727M360 131.909V164.636M360 131.909H1080M360 164.636V197.364M360 164.636H1080M360 197.364V230.091M360 197.364H392.727M360 230.091V262.818M360 230.091H392.727M360 262.818V295.545M360 262.818H392.727M360 295.545V328.273M360 295.545H392.727M360 328.273V361M360 328.273H392.727M360 361V393.727M360 361H392.727M360 393.727V426.455M360 393.727H392.727M360 426.455V459.182M360 426.455H392.727M360 459.182V491.909M360 459.182H392.727M360 491.909V524.636M360 491.909H392.727M360 524.636V557.364M360 524.636H392.727M360 557.364V590.091M360 557.364H392.727M360 590.091V622.818M360 590.091H392.727M360 622.818V655.545M360 622.818H392.727M360 655.545H392.727M392.727 1V33.7273M392.727 1H425.455M392.727 33.7273V66.4545M392.727 33.7273H425.455M392.727 66.4545V99.1818M392.727 66.4545H425.455M392.727 99.1818H425.455M392.727 99.1818V197.364M392.727 197.364V230.091M392.727 197.364H425.455M392.727 230.091V262.818M392.727 230.091H425.455M392.727 262.818V295.545M392.727 262.818H425.455M392.727 295.545V328.273M392.727 295.545H425.455M392.727 328.273V361M392.727 328.273H425.455M392.727 361V393.727M392.727 361H425.455M392.727 393.727V426.455M392.727 393.727H425.455M392.727 426.455V459.182M392.727 426.455H425.455M392.727 459.182V491.909M392.727 459.182H425.455M392.727 491.909V524.636M392.727 491.909H425.455M392.727 524.636V557.364M392.727 524.636H425.455M392.727 557.364V590.091M392.727 557.364H425.455M392.727 590.091V622.818M392.727 590.091H425.455M392.727 622.818V655.545M392.727 622.818H425.455M392.727 655.545H425.455M425.455 1V33.7273M425.455 1H458.182M425.455 33.7273V66.4545M425.455 33.7273H458.182M425.455 66.4545V99.1818M425.455 66.4545H458.182M425.455 99.1818H458.182M425.455 99.1818V197.364M425.455 197.364V230.091M425.455 197.364H458.182M425.455 230.091V262.818M425.455 230.091H458.182M425.455 262.818V295.545M425.455 262.818H458.182M425.455 295.545V328.273M425.455 295.545H458.182M425.455 328.273V361M425.455 328.273H458.182M425.455 361V393.727M425.455 361H458.182M425.455 393.727V426.455M425.455 393.727H458.182M425.455 426.455V459.182M425.455 426.455H458.182M425.455 459.182V491.909M425.455 459.182H458.182M425.455 491.909V524.636M425.455 491.909H458.182M425.455 524.636V557.364M425.455 524.636H458.182M425.455 557.364V590.091M425.455 557.364H458.182M425.455 590.091V622.818M425.455 590.091H458.182M425.455 622.818V655.545M425.455 622.818H458.182M425.455 655.545H458.182M458.182 1V33.7273M458.182 1H490.909M458.182 33.7273V66.4545M458.182 33.7273H490.909M458.182 66.4545V99.1818M458.182 66.4545H490.909M458.182 99.1818H490.909M458.182 99.1818V197.364M458.182 197.364V230.091M458.182 197.364H981.818M458.182 230.091V262.818M458.182 230.091H981.818M458.182 262.818V295.545M458.182 262.818H490.909M458.182 295.545V328.273M458.182 295.545H490.909M458.182 328.273V361M458.182 328.273H490.909M458.182 361V393.727M458.182 361H490.909M458.182 393.727V426.455M458.182 393.727H490.909M458.182 426.455V459.182M458.182 426.455H490.909M458.182 459.182V491.909M458.182 459.182H490.909M458.182 491.909V524.636M458.182 491.909H490.909M458.182 524.636V557.364M458.182 524.636H490.909M458.182 557.364V590.091M458.182 557.364H490.909M458.182 590.091V622.818M458.182 590.091H490.909M458.182 622.818V655.545M458.182 622.818H490.909M458.182 655.545H490.909M490.909 1V33.7273M490.909 1H523.636M490.909 33.7273V66.4545M490.909 33.7273H523.636M490.909 66.4545V99.1818M490.909 66.4545H523.636M490.909 99.1818H523.636M490.909 99.1818V262.818M490.909 262.818V295.545M490.909 262.818H523.636M490.909 295.545V328.273M490.909 295.545H523.636M490.909 328.273V361M490.909 328.273H523.636M490.909 361V393.727M490.909 361H523.636M490.909 393.727V426.455M490.909 393.727H523.636M490.909 426.455V459.182M490.909 426.455H523.636M490.909 459.182V491.909M490.909 459.182H523.636M490.909 491.909V524.636M490.909 491.909H523.636M490.909 524.636V557.364M490.909 524.636H523.636M490.909 557.364V590.091M490.909 557.364H523.636M490.909 590.091V622.818M490.909 590.091H523.636M490.909 622.818V655.545M490.909 622.818H523.636M490.909 655.545H523.636M523.636 1V33.7273M523.636 1H556.364M523.636 33.7273V66.4545M523.636 33.7273H556.364M523.636 66.4545V99.1818M523.636 66.4545H556.364M523.636 99.1818H556.364M523.636 99.1818V262.818M523.636 262.818V295.545M523.636 262.818H556.364M523.636 295.545V328.273M523.636 295.545H556.364M523.636 328.273V361M523.636 328.273H556.364M523.636 361V393.727M523.636 361H556.364M523.636 393.727V426.455M523.636 393.727H556.364M523.636 426.455V459.182M523.636 426.455H556.364M523.636 459.182V491.909M523.636 459.182H556.364M523.636 491.909V524.636M523.636 491.909H556.364M523.636 524.636V557.364M523.636 524.636H556.364M523.636 557.364V590.091M523.636 557.364H556.364M523.636 590.091V622.818M523.636 590.091H556.364M523.636 622.818V655.545M523.636 622.818H556.364M523.636 655.545H556.364M556.364 1V33.7273M556.364 1H589.091M556.364 33.7273V66.4545M556.364 33.7273H589.091M556.364 66.4545V99.1818M556.364 66.4545H589.091M556.364 99.1818H589.091M556.364 99.1818V262.818M556.364 262.818V295.545M556.364 262.818H589.091M556.364 295.545V328.273M556.364 295.545H589.091M556.364 328.273V361M556.364 328.273H589.091M556.364 361V393.727M556.364 361H589.091M556.364 393.727V426.455M556.364 393.727H589.091M556.364 426.455V459.182M556.364 426.455H589.091M556.364 459.182V491.909M556.364 459.182H589.091M556.364 491.909V524.636M556.364 491.909H589.091M556.364 524.636V557.364M556.364 524.636H589.091M556.364 557.364V590.091M556.364 557.364H589.091M556.364 590.091V622.818M556.364 590.091H589.091M556.364 622.818V655.545M556.364 622.818H589.091M556.364 655.545H589.091M589.091 1V33.7273M589.091 1H621.818M589.091 33.7273V66.4545M589.091 33.7273H621.818M589.091 66.4545V99.1818M589.091 66.4545H621.818M589.091 99.1818H621.818M589.091 99.1818V262.818M589.091 262.818V295.545M589.091 262.818H621.818M589.091 295.545V328.273M589.091 295.545H621.818M589.091 328.273V361M589.091 328.273H621.818M589.091 361V393.727M589.091 361H621.818M589.091 393.727V426.455M589.091 393.727H621.818M589.091 426.455V459.182M589.091 426.455H621.818M589.091 459.182V491.909M589.091 459.182H621.818M589.091 491.909V524.636M589.091 491.909H621.818M589.091 524.636V557.364M589.091 524.636H621.818M589.091 557.364V590.091M589.091 557.364H621.818M589.091 590.091V622.818M589.091 590.091H621.818M589.091 622.818V655.545M589.091 622.818H621.818M589.091 655.545H621.818M621.818 1V33.7273M621.818 1H654.545M621.818 33.7273V66.4545M621.818 33.7273H654.545M621.818 66.4545V99.1818M621.818 66.4545H654.545M621.818 99.1818H654.545M621.818 99.1818V262.818M621.818 262.818V295.545M621.818 262.818H654.545M621.818 295.545V328.273M621.818 295.545H654.545M621.818 328.273V361M621.818 328.273H654.545M621.818 361V393.727M621.818 361H654.545M621.818 393.727V426.455M621.818 393.727H654.545M621.818 426.455V459.182M621.818 426.455H654.545M621.818 459.182V491.909M621.818 459.182H654.545M621.818 491.909V524.636M621.818 491.909H654.545M621.818 524.636V557.364M621.818 524.636H654.545M621.818 557.364V590.091M621.818 557.364H654.545M621.818 590.091V622.818M621.818 590.091H654.545M621.818 622.818V655.545M621.818 622.818H654.545M621.818 655.545H654.545M654.545 1V33.7273M654.545 1H687.273M654.545 33.7273V66.4545M654.545 33.7273H687.273M654.545 66.4545V99.1818M654.545 66.4545H687.273M654.545 99.1818H687.273M654.545 99.1818V262.818M654.545 262.818V295.545M654.545 262.818H687.273M654.545 295.545V328.273M654.545 295.545H687.273M654.545 328.273V361M654.545 328.273H687.273M654.545 361V393.727M654.545 361H687.273M654.545 393.727V426.455M654.545 393.727H687.273M654.545 426.455V459.182M654.545 426.455H687.273M654.545 459.182V491.909M654.545 459.182H687.273M654.545 491.909V524.636M654.545 491.909H687.273M654.545 524.636V557.364M654.545 524.636H687.273M654.545 557.364V590.091M654.545 557.364H687.273M654.545 590.091V622.818M654.545 590.091H687.273M654.545 622.818V655.545M654.545 622.818H687.273M654.545 655.545H687.273M687.273 1V33.7273M687.273 1H720M687.273 33.7273H720M687.273 33.7273V66.4545M687.273 66.4545V99.1818M687.273 66.4545H720M687.273 99.1818H720M687.273 99.1818V262.818M687.273 262.818V295.545M687.273 262.818H720M687.273 295.545V328.273M687.273 295.545H720M687.273 328.273V361M687.273 328.273H720M687.273 361V393.727M687.273 361H720M687.273 393.727V426.455M687.273 393.727H720M687.273 426.455V459.182M687.273 426.455H720M687.273 459.182V491.909M687.273 459.182H720M687.273 491.909V524.636M687.273 491.909H720M687.273 524.636V557.364M687.273 524.636H720M687.273 557.364V590.091M687.273 557.364H720M687.273 590.091V622.818M687.273 590.091H720M687.273 622.818V655.545M687.273 622.818H720M687.273 655.545H720M720 1V33.7273M720 1H752.727M720 33.7273H752.727M720 33.7273V66.4545M720 66.4545V99.1818M720 66.4545H752.727M720 99.1818H752.727M720 99.1818V262.818M720 262.818V295.545M720 262.818H752.727M720 295.545V328.273M720 295.545H752.727M720 328.273V361M720 328.273H752.727M720 361V393.727M720 361H752.727M720 393.727V426.455M720 393.727H752.727M720 426.455V459.182M720 426.455H752.727M720 459.182V491.909M720 459.182H752.727M720 491.909V524.636M720 491.909H752.727M720 524.636V557.364M720 524.636H752.727M720 557.364V590.091M720 557.364H752.727M720 590.091V622.818M720 590.091H752.727M720 622.818V655.545M720 622.818H752.727M720 655.545H752.727M752.727 1V33.7273M752.727 1H785.455M752.727 33.7273H785.455M752.727 33.7273V66.4545M752.727 66.4545V99.1818M752.727 66.4545H785.455M752.727 99.1818H785.455M752.727 99.1818V262.818M752.727 262.818V295.545M752.727 262.818H785.455M752.727 295.545V328.273M752.727 295.545H785.455M752.727 328.273V361M752.727 328.273H785.455M752.727 361V393.727M752.727 361H785.455M752.727 393.727V426.455M752.727 393.727H785.455M752.727 426.455V459.182M752.727 426.455H785.455M752.727 459.182V491.909M752.727 459.182H785.455M752.727 491.909V524.636M752.727 491.909H785.455M752.727 524.636V557.364M752.727 524.636H785.455M752.727 557.364V590.091M752.727 557.364H785.455M752.727 590.091V622.818M752.727 590.091H785.455M752.727 622.818V655.545M752.727 622.818H785.455M752.727 655.545H785.455M785.455 1V33.7273M785.455 1H818.182M785.455 33.7273H818.182M785.455 33.7273V66.4545M785.455 66.4545V99.1818M785.455 66.4545H818.182M785.455 99.1818H818.182M785.455 99.1818V262.818M785.455 262.818V295.545M785.455 262.818H818.182M785.455 295.545V328.273M785.455 295.545H818.182M785.455 328.273V361M785.455 328.273H818.182M785.455 361V393.727M785.455 361H818.182M785.455 393.727V426.455M785.455 393.727H818.182M785.455 426.455V459.182M785.455 426.455H818.182M785.455 459.182V491.909M785.455 459.182H818.182M785.455 491.909V524.636M785.455 491.909H818.182M785.455 524.636V557.364M785.455 524.636H818.182M785.455 557.364V590.091M785.455 557.364H818.182M785.455 590.091V622.818M785.455 590.091H818.182M785.455 622.818V655.545M785.455 622.818H818.182M785.455 655.545H818.182M818.182 1V33.7273M818.182 1H850.909M818.182 33.7273V66.4545M818.182 33.7273H850.909M818.182 66.4545V99.1818M818.182 66.4545H850.909M818.182 99.1818H850.909M818.182 99.1818V262.818M818.182 262.818V295.545M818.182 262.818H850.909M818.182 295.545V328.273M818.182 295.545H850.909M818.182 328.273V361M818.182 328.273H850.909M818.182 361V393.727M818.182 361H850.909M818.182 393.727V426.455M818.182 393.727H850.909M818.182 426.455V459.182M818.182 426.455H850.909M818.182 459.182V491.909M818.182 459.182H850.909M818.182 491.909V524.636M818.182 491.909H850.909M818.182 524.636V557.364M818.182 524.636H850.909M818.182 557.364V590.091M818.182 557.364H850.909M818.182 590.091V622.818M818.182 590.091H850.909M818.182 622.818V655.545M818.182 622.818H850.909M818.182 655.545H850.909M850.909 1V33.7273M850.909 1H883.636M850.909 33.7273V66.4545M850.909 33.7273H883.636M850.909 66.4545V99.1818M850.909 66.4545H883.636M850.909 99.1818H883.636M850.909 99.1818V262.818M850.909 262.818V295.545M850.909 262.818H883.636M850.909 295.545V328.273M850.909 295.545H883.636M850.909 328.273V361M850.909 328.273H883.636M850.909 361V393.727M850.909 361H883.636M850.909 393.727V426.455M850.909 393.727H883.636M850.909 426.455V459.182M850.909 426.455H883.636M850.909 459.182V491.909M850.909 459.182H883.636M850.909 491.909V524.636M850.909 491.909H883.636M850.909 524.636V557.364M850.909 524.636H883.636M850.909 557.364V590.091M850.909 557.364H883.636M850.909 590.091V622.818M850.909 590.091H883.636M850.909 622.818V655.545M850.909 622.818H883.636M850.909 655.545H883.636M883.636 1V33.7273M883.636 1H916.364M883.636 33.7273V66.4545M883.636 33.7273H916.364M883.636 66.4545V99.1818M883.636 66.4545H916.364M883.636 99.1818H916.364M883.636 99.1818V262.818M883.636 262.818V295.545M883.636 262.818H916.364M883.636 295.545V328.273M883.636 295.545H916.364M883.636 328.273V361M883.636 328.273H916.364M883.636 361V393.727M883.636 361H916.364M883.636 393.727V426.455M883.636 393.727H916.364M883.636 426.455V459.182M883.636 426.455H916.364M883.636 459.182V491.909M883.636 459.182H916.364M883.636 491.909V524.636M883.636 491.909H916.364M883.636 524.636V557.364M883.636 524.636H916.364M883.636 557.364V590.091M883.636 557.364H916.364M883.636 590.091V622.818M883.636 590.091H916.364M883.636 622.818V655.545M883.636 622.818H916.364M883.636 655.545H916.364M916.364 1V33.7273M916.364 1H949.091M916.364 33.7273V66.4545M916.364 33.7273H949.091M916.364 66.4545V99.1818M916.364 66.4545H949.091M916.364 99.1818H949.091M916.364 99.1818V262.818M916.364 262.818V295.545M916.364 262.818H949.091M916.364 295.545V328.273M916.364 295.545H949.091M916.364 328.273V361M916.364 328.273H949.091M916.364 361V393.727M916.364 361H949.091M916.364 393.727V426.455M916.364 393.727H949.091M916.364 426.455V459.182M916.364 426.455H949.091M916.364 459.182V491.909M916.364 459.182H949.091M916.364 491.909V524.636M916.364 491.909H949.091M916.364 524.636V557.364M916.364 524.636H949.091M916.364 557.364V590.091M916.364 557.364H949.091M916.364 590.091V622.818M916.364 590.091H949.091M916.364 622.818V655.545M916.364 622.818H949.091M916.364 655.545H949.091M949.091 1V33.7273M949.091 1H981.818M949.091 33.7273V66.4545M949.091 33.7273H981.818M949.091 66.4545V99.1818M949.091 66.4545H981.818M949.091 99.1818H981.818M949.091 99.1818V262.818M949.091 262.818V295.545M949.091 262.818H981.818M949.091 295.545V328.273M949.091 295.545H981.818M949.091 328.273V361M949.091 328.273H981.818M949.091 361V393.727M949.091 361H981.818M949.091 393.727V426.455M949.091 393.727H981.818M949.091 426.455V459.182M949.091 426.455H981.818M949.091 459.182V491.909M949.091 459.182H981.818M949.091 491.909V524.636M949.091 491.909H981.818M949.091 524.636V557.364M949.091 524.636H981.818M949.091 557.364V590.091M949.091 557.364H981.818M949.091 590.091V622.818M949.091 590.091H981.818M949.091 622.818V655.545M949.091 622.818H981.818M949.091 655.545H981.818M981.818 1V33.7273M981.818 1H1014.55M981.818 33.7273V66.4545M981.818 33.7273H1014.55M981.818 66.4545V99.1818M981.818 66.4545H1014.55M981.818 99.1818H1014.55M981.818 99.1818V197.364M981.818 197.364V230.091M981.818 197.364H1014.55M981.818 230.091V262.818M981.818 230.091H1014.55M981.818 262.818V295.545M981.818 262.818H1014.55M981.818 295.545V328.273M981.818 295.545H1014.55M981.818 328.273V361M981.818 328.273H1014.55M981.818 361V393.727M981.818 361H1014.55M981.818 393.727V426.455M981.818 393.727H1014.55M981.818 426.455V459.182M981.818 426.455H1014.55M981.818 459.182V491.909M981.818 459.182H1014.55M981.818 491.909V524.636M981.818 491.909H1014.55M981.818 524.636V557.364M981.818 524.636H1014.55M981.818 557.364V590.091M981.818 557.364H1014.55M981.818 590.091V622.818M981.818 590.091H1014.55M981.818 622.818V655.545M981.818 622.818H1014.55M981.818 655.545H1014.55M1014.55 1V33.7273M1014.55 1H1047.27M1014.55 33.7273V66.4545M1014.55 33.7273H1047.27M1014.55 66.4545V99.1818M1014.55 66.4545H1047.27M1014.55 99.1818H1047.27M1014.55 99.1818V197.364M1014.55 197.364V230.091M1014.55 197.364H1047.27M1014.55 230.091V262.818M1014.55 230.091H1047.27M1014.55 262.818V295.545M1014.55 262.818H1047.27M1014.55 295.545V328.273M1014.55 295.545H1047.27M1014.55 328.273V361M1014.55 328.273H1047.27M1014.55 361V393.727M1014.55 361H1047.27M1014.55 393.727V426.455M1014.55 393.727H1047.27M1014.55 426.455V459.182M1014.55 426.455H1047.27M1014.55 459.182V491.909M1014.55 459.182H1047.27M1014.55 491.909V524.636M1014.55 491.909H1047.27M1014.55 524.636V557.364M1014.55 524.636H1047.27M1014.55 557.364V590.091M1014.55 557.364H1047.27M1014.55 590.091V622.818M1014.55 590.091H1047.27M1014.55 622.818V655.545M1014.55 622.818H1047.27M1014.55 655.545H1047.27M1047.27 1V33.7273M1047.27 1H1080M1047.27 33.7273V66.4545M1047.27 33.7273H1080M1047.27 66.4545V99.1818M1047.27 66.4545H1080M1047.27 99.1818H1080M1047.27 99.1818V197.364M1047.27 197.364V230.091M1047.27 197.364H1080M1047.27 230.091V262.818M1047.27 230.091H1080M1047.27 262.818V295.545M1047.27 262.818H1080M1047.27 295.545V328.273M1047.27 295.545H1080M1047.27 328.273V361M1047.27 328.273H1080M1047.27 361V393.727M1047.27 361H1080M1047.27 393.727V426.455M1047.27 393.727H1080M1047.27 426.455V459.182M1047.27 426.455H1080M1047.27 459.182V491.909M1047.27 459.182H1080M1047.27 491.909V524.636M1047.27 491.909H1080M1047.27 524.636V557.364M1047.27 524.636H1080M1047.27 557.364V590.091M1047.27 557.364H1080M1047.27 590.091V622.818M1047.27 590.091H1080M1047.27 622.818V655.545M1047.27 622.818H1080M1047.27 655.545H1080M1080 1V33.7273M1080 1H1112.73M1080 33.7273V66.4545M1080 33.7273H1112.73M1080 66.4545V99.1818M1080 66.4545H1112.73M1080 99.1818V131.909M1080 99.1818H1112.73M1080 131.909V164.636M1080 131.909H1112.73M1080 164.636V197.364M1080 164.636H1112.73M1080 197.364V230.091M1080 197.364H1112.73M1080 230.091V262.818M1080 230.091H1112.73M1080 262.818V295.545M1080 262.818H1112.73M1080 295.545V328.273M1080 295.545H1112.73M1080 328.273V361M1080 328.273H1112.73M1080 361V393.727M1080 361H1112.73M1080 393.727V426.455M1080 393.727H1112.73M1080 426.455V459.182M1080 426.455H1112.73M1080 459.182V491.909M1080 459.182H1112.73M1080 491.909V524.636M1080 491.909H1112.73M1080 524.636V557.364M1080 524.636H1112.73M1080 557.364V590.091M1080 557.364H1112.73M1080 590.091V622.818M1080 590.091H1112.73M1080 622.818V655.545M1080 622.818H1112.73M1080 655.545H1112.73M1112.73 1V33.7273M1112.73 1H1145.45M1112.73 33.7273V66.4545M1112.73 33.7273H1145.45M1112.73 66.4545V99.1818M1112.73 66.4545H1145.45M1112.73 99.1818V131.909M1112.73 99.1818H1145.45M1112.73 131.909V164.636M1112.73 131.909H1145.45M1112.73 164.636V197.364M1112.73 164.636H1145.45M1112.73 197.364V230.091M1112.73 197.364H1145.45M1112.73 230.091V262.818M1112.73 230.091H1145.45M1112.73 262.818V295.545M1112.73 262.818H1145.45M1112.73 295.545V328.273M1112.73 295.545H1145.45M1112.73 328.273V361M1112.73 328.273H1145.45M1112.73 361V393.727M1112.73 361H1145.45M1112.73 393.727V426.455M1112.73 393.727H1145.45M1112.73 426.455V459.182M1112.73 426.455H1145.45M1112.73 459.182V491.909M1112.73 459.182H1145.45M1112.73 491.909V524.636M1112.73 491.909H1145.45M1112.73 524.636V557.364M1112.73 524.636H1145.45M1112.73 557.364V590.091M1112.73 557.364H1145.45M1112.73 590.091V622.818M1112.73 590.091H1145.45M1112.73 622.818V655.545M1112.73 622.818H1145.45M1112.73 655.545H1145.45M1145.45 1V33.7273M1145.45 1H1178.18M1145.45 33.7273V66.4545M1145.45 33.7273H1178.18M1145.45 66.4545V99.1818M1145.45 66.4545H1178.18M1145.45 99.1818V131.909M1145.45 99.1818H1178.18M1145.45 131.909V164.636M1145.45 131.909H1178.18M1145.45 164.636V197.364M1145.45 164.636H1178.18M1145.45 197.364V230.091M1145.45 197.364H1178.18M1145.45 230.091V262.818M1145.45 230.091H1178.18M1145.45 262.818V295.545M1145.45 262.818H1178.18M1145.45 295.545V328.273M1145.45 295.545H1178.18M1145.45 328.273V361M1145.45 328.273H1178.18M1145.45 361V393.727M1145.45 361H1178.18M1145.45 393.727V426.455M1145.45 393.727H1178.18M1145.45 426.455V459.182M1145.45 426.455H1178.18M1145.45 459.182V491.909M1145.45 459.182H1178.18M1145.45 491.909V524.636M1145.45 491.909H1178.18M1145.45 524.636V557.364M1145.45 524.636H1178.18M1145.45 557.364V590.091M1145.45 557.364H1178.18M1145.45 590.091V622.818M1145.45 590.091H1178.18M1145.45 622.818V655.545M1145.45 622.818H1178.18M1145.45 655.545H1178.18M1178.18 1V33.7273M1178.18 1H1210.91M1178.18 33.7273V66.4545M1178.18 33.7273H1210.91M1178.18 66.4545V99.1818M1178.18 66.4545H1210.91M1178.18 99.1818V131.909M1178.18 99.1818H1210.91M1178.18 131.909V164.636M1178.18 131.909H1210.91M1178.18 164.636V197.364M1178.18 164.636H1210.91M1178.18 197.364V230.091M1178.18 197.364H1210.91M1178.18 230.091V262.818M1178.18 230.091H1210.91M1178.18 262.818V295.545M1178.18 262.818H1210.91M1178.18 295.545V328.273M1178.18 295.545H1210.91M1178.18 328.273V361M1178.18 328.273H1210.91M1178.18 361V393.727M1178.18 361H1210.91M1178.18 393.727V426.455M1178.18 393.727H1210.91M1178.18 426.455V459.182M1178.18 426.455H1210.91M1178.18 459.182V491.909M1178.18 459.182H1210.91M1178.18 491.909V524.636M1178.18 491.909H1210.91M1178.18 524.636V557.364M1178.18 524.636H1210.91M1178.18 557.364V590.091M1178.18 557.364H1210.91M1178.18 590.091V622.818M1178.18 590.091H1210.91M1178.18 622.818V655.545M1178.18 622.818H1210.91M1178.18 655.545H1210.91M1210.91 1V33.7273M1210.91 1H1243.64M1210.91 33.7273V66.4545M1210.91 33.7273H1243.64M1210.91 66.4545V99.1818M1210.91 66.4545H1243.64M1210.91 99.1818V131.909M1210.91 99.1818H1243.64M1210.91 131.909V164.636M1210.91 131.909H1243.64M1210.91 164.636V197.364M1210.91 164.636H1243.64M1210.91 197.364V230.091M1210.91 197.364H1243.64M1210.91 230.091H1243.64M1210.91 230.091V262.818M1210.91 262.818V295.545M1210.91 262.818H1243.64M1210.91 295.545V328.273M1210.91 295.545H1243.64M1210.91 328.273V361M1210.91 328.273H1243.64M1210.91 361V393.727M1210.91 361H1243.64M1210.91 393.727V426.455M1210.91 393.727H1243.64M1210.91 426.455V459.182M1210.91 426.455H1243.64M1210.91 459.182V491.909M1210.91 459.182H1243.64M1210.91 491.909V524.636M1210.91 491.909H1243.64M1210.91 524.636V557.364M1210.91 524.636H1243.64M1210.91 557.364V590.091M1210.91 557.364H1243.64M1210.91 590.091V622.818M1210.91 590.091H1243.64M1210.91 622.818V655.545M1210.91 622.818H1243.64M1210.91 655.545H1243.64M1243.64 1V33.7273M1243.64 1H1276.36M1243.64 33.7273V66.4545M1243.64 33.7273H1276.36M1243.64 66.4545V99.1818M1243.64 66.4545H1276.36M1243.64 99.1818V131.909M1243.64 99.1818H1276.36M1243.64 131.909V164.636M1243.64 131.909H1276.36M1243.64 164.636V197.364M1243.64 164.636H1276.36M1243.64 197.364V230.091M1243.64 197.364H1276.36M1243.64 230.091V262.818M1243.64 230.091H1276.36M1243.64 262.818V295.545M1243.64 262.818H1276.36M1243.64 295.545V328.273M1243.64 295.545H1276.36M1243.64 328.273V361M1243.64 328.273H1276.36M1243.64 361V393.727M1243.64 361H1276.36M1243.64 393.727V426.455M1243.64 393.727H1276.36M1243.64 426.455V459.182M1243.64 426.455H1276.36M1243.64 459.182V491.909M1243.64 459.182H1276.36M1243.64 491.909V524.636M1243.64 491.909H1276.36M1243.64 524.636V557.364M1243.64 524.636H1276.36M1243.64 557.364V590.091M1243.64 557.364H1276.36M1243.64 590.091V622.818M1243.64 590.091H1276.36M1243.64 622.818V655.545M1243.64 622.818H1276.36M1243.64 655.545H1276.36M1276.36 1V33.7273M1276.36 1H1309.09M1276.36 33.7273V66.4545M1276.36 33.7273H1309.09M1276.36 66.4545V99.1818M1276.36 66.4545H1309.09M1276.36 99.1818V131.909M1276.36 99.1818H1309.09M1276.36 131.909V164.636M1276.36 131.909H1309.09M1276.36 164.636V197.364M1276.36 164.636H1309.09M1276.36 197.364V230.091M1276.36 197.364H1309.09M1276.36 230.091V262.818M1276.36 230.091H1309.09M1276.36 262.818V295.545M1276.36 262.818H1309.09M1276.36 295.545V328.273M1276.36 295.545H1309.09M1276.36 328.273V361M1276.36 328.273H1309.09M1276.36 361V393.727M1276.36 361H1309.09M1276.36 393.727V426.455M1276.36 393.727H1309.09M1276.36 426.455V459.182M1276.36 426.455H1309.09M1276.36 459.182V491.909M1276.36 459.182H1309.09M1276.36 491.909V524.636M1276.36 491.909H1309.09M1276.36 524.636V557.364M1276.36 524.636H1309.09M1276.36 557.364V590.091M1276.36 557.364H1309.09M1276.36 590.091V622.818M1276.36 590.091H1309.09M1276.36 622.818V655.545M1276.36 622.818H1309.09M1276.36 655.545H1309.09M1309.09 1V33.7273M1309.09 1H1341.82M1309.09 33.7273V66.4545M1309.09 33.7273H1341.82M1309.09 66.4545V99.1818M1309.09 66.4545H1341.82M1309.09 99.1818V131.909M1309.09 99.1818H1341.82M1309.09 131.909V164.636M1309.09 131.909H1341.82M1309.09 164.636V197.364M1309.09 164.636H1341.82M1309.09 197.364V230.091M1309.09 197.364H1341.82M1309.09 230.091V262.818M1309.09 230.091H1341.82M1309.09 262.818V295.545M1309.09 262.818H1341.82M1309.09 295.545V328.273M1309.09 295.545H1341.82M1309.09 328.273V361M1309.09 328.273H1341.82M1309.09 361V393.727M1309.09 361H1341.82M1309.09 393.727V426.455M1309.09 393.727H1341.82M1309.09 426.455V459.182M1309.09 426.455H1341.82M1309.09 459.182V491.909M1309.09 459.182H1341.82M1309.09 491.909V524.636M1309.09 491.909H1341.82M1309.09 524.636V557.364M1309.09 524.636H1341.82M1309.09 557.364V590.091M1309.09 557.364H1341.82M1309.09 590.091V622.818M1309.09 590.091H1341.82M1309.09 622.818V655.545M1309.09 622.818H1341.82M1309.09 655.545H1341.82M1341.82 1V33.7273M1341.82 1H1374.55M1341.82 33.7273V66.4545M1341.82 33.7273H1374.55M1341.82 66.4545V99.1818M1341.82 66.4545H1374.55M1341.82 99.1818V131.909M1341.82 99.1818H1374.55M1341.82 131.909V164.636M1341.82 131.909H1374.55M1341.82 164.636V197.364M1341.82 164.636H1374.55M1341.82 197.364V230.091M1341.82 197.364H1374.55M1341.82 230.091V262.818M1341.82 230.091H1374.55M1341.82 262.818V295.545M1341.82 262.818H1374.55M1341.82 295.545V328.273M1341.82 295.545H1374.55M1341.82 328.273V361M1341.82 328.273H1374.55M1341.82 361V393.727M1341.82 361H1374.55M1341.82 393.727V426.455M1341.82 393.727H1374.55M1341.82 426.455V459.182M1341.82 426.455H1374.55M1341.82 459.182V491.909M1341.82 459.182H1374.55M1341.82 491.909V524.636M1341.82 491.909H1374.55M1341.82 524.636V557.364M1341.82 524.636H1374.55M1341.82 557.364V590.091M1341.82 557.364H1374.55M1341.82 590.091V622.818M1341.82 590.091H1374.55M1341.82 622.818V655.545M1341.82 622.818H1374.55M1341.82 655.545H1374.55M1374.55 1V33.7273M1374.55 1H1407.27M1374.55 33.7273V66.4545M1374.55 33.7273H1407.27M1374.55 66.4545V99.1818M1374.55 66.4545H1407.27M1374.55 99.1818V131.909M1374.55 99.1818H1407.27M1374.55 131.909V164.636M1374.55 131.909H1407.27M1374.55 164.636V197.364M1374.55 164.636H1407.27M1374.55 197.364V230.091M1374.55 197.364H1407.27M1374.55 230.091V262.818M1374.55 230.091H1407.27M1374.55 262.818V295.545M1374.55 262.818H1407.27M1374.55 295.545V328.273M1374.55 295.545H1407.27M1374.55 328.273V361M1374.55 328.273H1407.27M1374.55 361V393.727M1374.55 361H1407.27M1374.55 393.727V426.455M1374.55 393.727H1407.27M1374.55 426.455V459.182M1374.55 426.455H1407.27M1374.55 459.182V491.909M1374.55 459.182H1407.27M1374.55 491.909V524.636M1374.55 491.909H1407.27M1374.55 524.636V557.364M1374.55 524.636H1407.27M1374.55 557.364V590.091M1374.55 557.364H1407.27M1374.55 590.091V622.818M1374.55 590.091H1407.27M1374.55 622.818V655.545M1374.55 622.818H1407.27M1374.55 655.545H1407.27M1407.27 1V33.7273M1407.27 1H1440V33.7273M1407.27 33.7273V66.4545M1407.27 33.7273H1440M1407.27 66.4545V99.1818M1407.27 66.4545H1440M1407.27 99.1818V131.909M1407.27 99.1818H1440M1407.27 131.909V164.636M1407.27 131.909H1440M1407.27 164.636V197.364M1407.27 164.636H1440M1407.27 197.364V230.091M1407.27 197.364H1440M1407.27 230.091V262.818M1407.27 230.091H1440M1407.27 262.818V295.545M1407.27 262.818H1440M1407.27 295.545V328.273M1407.27 295.545H1440M1407.27 328.273V361M1407.27 328.273H1440M1407.27 361V393.727M1407.27 361H1440M1407.27 393.727V426.455M1407.27 393.727H1440M1407.27 426.455V459.182M1407.27 426.455H1440M1407.27 459.182V491.909M1407.27 459.182H1440M1407.27 491.909V524.636M1407.27 491.909H1440M1407.27 524.636V557.364M1407.27 524.636H1440M1407.27 557.364V590.091M1407.27 557.364H1440M1407.27 590.091V622.818M1407.27 590.091H1440M1407.27 622.818V655.545M1407.27 622.818H1440M1407.27 655.545H1440V622.818M1440 33.7273V66.4545M1440 66.4545V99.1818M1440 99.1818V131.909M1440 131.909V164.636M1440 164.636V197.364M1440 197.364V230.091M1440 230.091V262.818M1440 262.818V295.545M1440 295.545V328.273M1440 328.273V361M1440 361V393.727M1440 393.727V426.455M1440 426.455V459.182M1440 459.182V491.909M1440 491.909V524.636M1440 524.636V557.364M1440 557.364V590.091M1440 590.091V622.818" stroke="url(#paint0_linear_1404_22338)" stroke-width="0.818182"/>
<defs>
<linearGradient id="paint0_linear_1404_22338" x1="720" y1="194.091" x2="720" y2="816.318" gradientUnits="userSpaceOnUse">
<stop stop-color="#82B0FF" stop-opacity="0.3"/>
<stop offset="1" stop-color="white" stop-opacity="0"/>
</linearGradient>
</defs>
</svg>
